<svg width="45" height="45" viewBox="0 0 45 45" fill="none" xmlns="http://www.w3.org/2000/svg">
<path d="M13.1934 35.295L3.27274 37.5L5.47774 27.5794C4.0259 24.8631 3.26841 21.8299 3.27274 18.75C3.27274 8.39438 11.6671 0 22.0227 0C32.3784 0 40.7727 8.39438 40.7727 18.75C40.7727 29.1056 32.3784 37.5 22.0227 37.5C18.9428 37.5043 15.9096 36.7468 13.1934 35.295ZM12.6477 18.75C12.6477 21.2364 13.6355 23.621 15.3936 25.3791C17.1518 27.1373 19.5363 28.125 22.0227 28.125C24.5091 28.125 26.8937 27.1373 28.6519 25.3791C30.41 23.621 31.3977 21.2364 31.3977 18.75H27.6477C27.6477 20.2418 27.0551 21.6726 26.0002 22.7275C24.9453 23.7824 23.5146 24.375 22.0227 24.375C20.5309 24.375 19.1002 23.7824 18.0453 22.7275C16.9904 21.6726 16.3977 20.2418 16.3977 18.75H12.6477Z" fill="#D8C4C4"/>
</svg>
